<?xml version="1.0" encoding="utf-8"?>
<!-- Generator: Adobe Illustrator 16.0.0, SVG Export Plug-In . SVG Version: 6.00 Build 0)  -->
<!DOCTYPE svg PUBLIC "-//W3C//DTD SVG 1.1//EN" "http://www.w3.org/Graphics/SVG/1.1/DTD/svg11.dtd">
<svg version="1.1" id="Capa_1" xmlns="http://www.w3.org/2000/svg" xmlns:xlink="http://www.w3.org/1999/xlink" x="0px" y="0px"
	 width="252px" height="100px" viewBox="0 0 252 100" enable-background="new 0 0 252 100" xml:space="preserve">
<g>
	<path fill="#004D9E" d="M99.195,72.522l0.84,0.615c-0.375,0.723-0.902,1.271-1.568,1.668c-0.651,0.381-1.405,0.578-2.252,0.578
		c-1.238,0-2.262-0.412-3.073-1.234c-0.812-0.813-1.214-1.852-1.214-3.107c0-1.262,0.402-2.299,1.214-3.125
		c0.811-0.814,1.835-1.225,3.07-1.225c0.766,0,1.466,0.166,2.099,0.51c0.624,0.332,1.142,0.803,1.531,1.426l-0.863,0.613
		c-0.259-0.488-0.634-0.879-1.125-1.16s-1.037-0.418-1.642-0.418c-0.936,0-1.703,0.318-2.312,0.961
		c-0.61,0.637-0.922,1.438-0.922,2.418c0,0.975,0.312,1.789,0.922,2.426c0.608,0.629,1.375,0.947,2.312,0.947
		c0.645,0,1.224-0.16,1.73-0.484C98.457,73.614,98.873,73.14,99.195,72.522"/>
	<path fill="#004D9E" d="M110.141,74.149c0.808-0.813,1.228-1.852,1.228-3.105c0-1.26-0.419-2.291-1.228-3.119
		c-0.822-0.822-1.846-1.234-3.085-1.234c-1.246,0-2.264,0.412-3.079,1.229c-0.818,0.822-1.219,1.861-1.219,3.125
		c0,1.254,0.4,2.293,1.219,3.105c0.808,0.822,1.833,1.232,3.079,1.232C108.3,75.382,109.329,74.972,110.141,74.149 M104.729,73.468
		c-0.605-0.637-0.919-1.451-0.919-2.424c0-0.982,0.313-1.785,0.919-2.422c0.615-0.639,1.379-0.959,2.313-0.959
		s1.708,0.32,2.315,0.951c0.612,0.641,0.916,1.447,0.916,2.43c0,0.973-0.304,1.787-0.922,2.424
		c-0.604,0.631-1.374,0.947-2.308,0.947S105.344,74.099,104.729,73.468"/>
	<polygon fill="#004D9E" points="114.663,75.167 114.663,66.872 115.629,66.872 118.981,71.96 122.348,66.872 123.29,66.872 
		123.29,75.167 122.264,75.167 122.264,68.69 118.981,73.606 115.691,68.69 115.691,75.167 	"/>
	<path fill="#004D9E" d="M128.251,75.167v-3.633h3.841c0.751,0,1.348-0.225,1.802-0.67c0.439-0.443,0.67-1.031,0.67-1.75
		c0-0.695-0.237-1.234-0.697-1.641c-0.468-0.402-1.104-0.602-1.908-0.602h-4.747v8.295H128.251z M128.251,67.823h3.693
		c0.482,0,0.854,0.115,1.124,0.355c0.268,0.248,0.398,0.584,0.398,1.029c0,0.441-0.131,0.781-0.398,1.01
		c-0.27,0.229-0.655,0.35-1.175,0.35h-3.643V67.823z"/>
	<path fill="#004D9E" d="M137.676,75.171l1.093-2.232h4.578l1.126,2.232h1.114l-4.098-8.301h-0.866l-4.057,8.301H137.676z
		 M141.06,68.292l1.827,3.68h-3.651L141.06,68.292z"/>
	<path fill="#004D9E" d="M154.053,63.882c-0.137,0.449-0.324,0.783-0.556,1.012c-0.248,0.227-0.539,0.342-0.887,0.342
		c-0.068,0-0.14-0.012-0.222-0.021c-0.075-0.008-0.171-0.027-0.261-0.045l-0.734-0.242c-0.075-0.029-0.147-0.041-0.21-0.047
		c-0.048-0.01-0.121-0.01-0.186-0.01c-0.148,0-0.273,0.045-0.399,0.135c-0.119,0.098-0.211,0.215-0.297,0.389h-0.59
		c0.101-0.432,0.28-0.775,0.529-1.004c0.255-0.234,0.569-0.35,0.927-0.35c0.087,0,0.153,0.006,0.222,0.012
		c0.062,0.012,0.119,0.021,0.183,0.045l0.714,0.225c0.089,0.029,0.155,0.047,0.242,0.064c0.071,0.014,0.131,0.023,0.181,0.023
		c0.157,0,0.304-0.043,0.416-0.133c0.114-0.078,0.215-0.213,0.312-0.395H154.053z M148.403,75.169v-8.297h0.542l5.389,6.203v-6.203
		h1.034v8.297h-0.524l-5.402-6.199v6.199H148.403z"/>
	<path fill="#004D9E" d="M159.661,65.87h-0.69l1.566-2.643h1.142L159.661,65.87z M159.39,66.835h1.036v8.334h-1.036V66.835z"/>
	<path fill="#004D9E" d="M164.316,75.171l1.099-2.232h4.579l1.129,2.232h1.114l-4.102-8.301h-0.862l-4.052,8.301H164.316z
		 M167.707,68.292l1.83,3.68h-3.651L167.707,68.292z"/>
	<polygon fill="#004D9E" points="177.658,75.169 177.658,66.872 178.613,66.872 181.968,71.964 185.343,66.872 186.278,66.872 
		186.278,75.169 185.253,75.169 185.253,68.69 181.968,73.608 178.681,68.69 178.681,75.169 	"/>
	<polygon fill="#004D9E" points="189.94,75.169 189.94,66.872 196.473,66.872 196.473,67.823 190.985,67.823 190.985,70.265 
		194.306,70.265 194.306,71.21 190.985,71.21 190.985,74.222 196.818,74.222 196.818,75.169 	"/>
	<path fill="#004D9E" d="M205.921,72.925v-1.221h-2.265v-0.939h3.315v2.482c-0.407,0.688-0.935,1.219-1.575,1.58
		c-0.645,0.373-1.376,0.555-2.197,0.555c-1.246,0-2.266-0.41-3.08-1.232c-0.802-0.813-1.207-1.852-1.207-3.107
		c0-1.262,0.405-2.301,1.217-3.121c0.813-0.818,1.838-1.227,3.07-1.227c0.775,0,1.466,0.162,2.102,0.508
		c0.638,0.344,1.146,0.816,1.539,1.439l-0.872,0.623c-0.261-0.502-0.629-0.895-1.124-1.178c-0.49-0.281-1.036-0.422-1.645-0.422
		c-0.933,0-1.71,0.318-2.323,0.957c-0.604,0.637-0.907,1.439-0.907,2.42c0,0.975,0.304,1.789,0.907,2.426
		c0.613,0.631,1.391,0.947,2.323,0.947c0.579,0,1.103-0.119,1.553-0.373C205.202,73.798,205.6,73.417,205.921,72.925"/>
	<path fill="#004D9E" d="M210.183,75.171l1.092-2.232h4.571l1.129,2.232h1.121l-4.104-8.301h-0.862l-4.056,8.301H210.183z
		 M213.566,68.292l1.826,3.68h-3.643L213.566,68.292z"/>
	<path fill="#004D9E" d="M222.388,73.923l0.604-0.9c0.593,0.459,1.2,0.814,1.837,1.049c0.631,0.24,1.259,0.359,1.879,0.359
		c0.771,0,1.395-0.158,1.872-0.484c0.477-0.326,0.719-0.736,0.719-1.26c0-0.406-0.174-0.736-0.518-1.004
		c-0.342-0.262-0.815-0.418-1.422-0.475c-0.146-0.012-0.354-0.025-0.642-0.037c-1.354-0.1-2.294-0.26-2.781-0.482
		c-0.386-0.188-0.683-0.426-0.88-0.723c-0.208-0.291-0.304-0.615-0.304-0.98c0-0.662,0.304-1.211,0.896-1.643
		c0.601-0.434,1.374-0.648,2.329-0.648c0.695,0,1.374,0.117,2.053,0.344c0.675,0.225,1.309,0.559,1.923,1.008l-0.614,0.848
		c-0.501-0.404-1.054-0.721-1.619-0.928c-0.56-0.203-1.132-0.299-1.729-0.299c-0.628,0-1.149,0.115-1.559,0.357
		c-0.398,0.242-0.61,0.541-0.61,0.906c0,0.152,0.031,0.281,0.1,0.406c0.071,0.113,0.16,0.23,0.31,0.334
		c0.335,0.252,1.071,0.418,2.206,0.48c0.519,0.039,0.928,0.07,1.204,0.105c0.845,0.092,1.517,0.363,2.008,0.809
		c0.498,0.449,0.739,0.998,0.739,1.652c0,0.783-0.334,1.408-1.009,1.912c-0.675,0.506-1.555,0.754-2.652,0.754
		c-0.832,0-1.596-0.125-2.309-0.354C223.707,74.79,223.032,74.415,222.388,73.923"/>
	<path fill="#004D9E" d="M234.927,74.017c0.181,0,0.32,0.061,0.439,0.197c0.12,0.119,0.174,0.293,0.174,0.492
		c0,0.197-0.054,0.361-0.174,0.488c-0.119,0.127-0.259,0.189-0.439,0.189c-0.188,0-0.331-0.063-0.45-0.189
		c-0.122-0.127-0.188-0.291-0.188-0.488s0.065-0.361,0.188-0.492C234.6,74.077,234.746,74.017,234.927,74.017"/>
	<path fill="#004D9E" d="M239.813,75.171l1.101-2.232h4.583l1.121,2.232h1.122l-4.108-8.301h-0.855l-4.058,8.301H239.813z
		 M243.204,68.292l1.824,3.68h-3.651L243.204,68.292z"/>
	<path fill="#004D9E" d="M251.564,74.017c0.17,0,0.316,0.061,0.433,0.197c0.123,0.119,0.178,0.293,0.178,0.492
		c0,0.197-0.055,0.361-0.178,0.488c-0.116,0.127-0.263,0.189-0.433,0.189c-0.188,0-0.341-0.063-0.45-0.189
		c-0.13-0.127-0.188-0.291-0.188-0.488s0.064-0.361,0.188-0.492C251.23,74.077,251.384,74.017,251.564,74.017"/>
	<path fill="#004D9E" d="M122.854,23.771c0,0-11.144,16.765-12.396,18.669c-1.258-1.906-12.336-18.669-12.336-18.669h-4.943v33.28
		h5.562v-22.74c2.383,3.531,11.718,17.425,11.718,17.425s9.333-13.894,11.716-17.425v22.74h5.554v-33.28h-0.848H122.854z"/>
	<polygon fill="#004D9E" points="145.625,41.997 158.29,41.997 158.29,36.645 145.625,36.645 145.625,29.117 166.517,29.117 
		166.517,23.771 165.678,23.771 139.999,23.771 139.999,57.051 167.861,57.051 167.861,51.703 145.625,51.703 	"/>
	<path fill="#004D9E" d="M192.243,43.896h8.66v3.49c-1.158,1.646-2.51,2.927-4.047,3.771c-1.596,0.881-3.456,1.322-5.517,1.322
		c-3.341,0-6.031-1.105-8.21-3.379c-2.198-2.286-3.263-5.109-3.263-8.636c0-3.532,1.064-6.361,3.263-8.656
		c2.179-2.288,4.872-3.394,8.21-3.394c2.151,0,4.12,0.515,5.855,1.512c1.724,0.998,3.055,2.398,3.967,4.156l0.455,0.871l4.717-3.428
		l-0.433-0.665c-1.577-2.48-3.658-4.425-6.168-5.769c-2.526-1.34-5.346-2.023-8.394-2.023c-4.916,0-9.059,1.662-12.294,4.938
		c-3.24,3.265-4.882,7.472-4.882,12.481c0,5.001,1.642,9.196,4.872,12.468c3.238,3.281,7.384,4.94,12.331,4.94
		c3.242,0,6.191-0.745,8.766-2.214c2.57-1.471,4.686-3.618,6.291-6.379l0.111-0.193V38.548h-14.292V43.896z"/>
	<path fill="#004D9E" d="M236.431,43.184h-11.187c0.88-1.782,4.494-9.078,5.574-11.256C231.906,34.106,235.54,41.402,236.431,43.184
		 M232.963,23.771h-0.518h-3.795l-16.31,33.28h6.082c0,0,3.773-7.603,4.183-8.437h16.416c0.419,0.822,4.292,8.437,4.292,8.437h6.147
		L232.963,23.771z"/>
	<path fill="#004D9E" d="M58.077,70.308c4.887-5.07,7.963-12.132,8.048-19.967c0.102-8.284-3.154-15.757-8.408-20.992
		c9.049,2.177,15.749,10.681,15.641,20.75C73.247,59.882,66.761,68.032,58.077,70.308 M44.71,70.222
		c4.945-5.135,8.023-12.311,8.023-20.259c0-7.581-2.8-14.454-7.346-19.537c0.305-0.135,0.623-0.261,0.948-0.382
		c7.871,2.944,13.47,10.84,13.36,20.055C59.587,59.77,53.253,67.837,44.71,70.222 M36.437,68.438l1.791-4.34
		c-3.333-3.805-5.35-8.891-5.285-14.453c0.087-7.601,4.024-14.211,9.852-17.856l-1.575,3.936c3.384,3.767,5.453,8.837,5.453,14.396
		C46.672,57.977,42.553,64.821,36.437,68.438 M21.868,70.642l2.708-6.543c-3.339-3.805-5.356-8.891-5.291-14.453
		c0.113-10.113,7.049-18.475,16.18-20.411c-5.2,5.095-8.481,12.374-8.58,20.502c-0.085,7.689,2.711,14.69,7.322,19.843
		c-2.382,1.033-4.996,1.607-7.743,1.607C24.884,71.187,23.354,70.981,21.868,70.642 M6.256,50.122
		c0-9.772,6.383-17.988,15.038-20.37c-4.894,5.066-7.977,12.135-8.068,19.984c-0.09,8.175,3.081,15.581,8.221,20.8
		C12.718,68.208,6.256,59.954,6.256,50.122 M53.656,21.789c-2.459-0.031-4.84,0.302-7.109,0.946
		c-2.091-0.591-4.284-0.918-6.547-0.946c-6.7-0.082-12.852,2.511-17.564,6.842l1.669-6.827C10.513,22.987-0.175,35.141-0.175,49.963
		c0,15.599,11.853,28.251,26.458,28.251c6.438,0,12.335-2.463,16.916-6.545l-1.666,6.545c5.854-0.447,11.194-2.92,15.397-6.789
		l-1.744,6.789C68.796,77.188,79.61,65.157,79.79,50.341C79.961,34.739,68.263,21.943,53.656,21.789"/>
</g>
</svg>
