<?xml version="1.0" encoding="utf-8"?>
<!-- Generator: Adobe Illustrator 17.0.0, SVG Export Plug-In . SVG Version: 6.00 Build 0)  -->
<!DOCTYPE svg PUBLIC "-//W3C//DTD SVG 1.1//EN" "http://www.w3.org/Graphics/SVG/1.1/DTD/svg11.dtd">
<svg version="1.1" id="Capa_1" xmlns="http://www.w3.org/2000/svg" xmlns:xlink="http://www.w3.org/1999/xlink" x="0px" y="0px"
	 width="850px" height="305.3px" viewBox="0 0 850 305.3" style="enable-background:new 0 0 850 305.3;" xml:space="preserve">
<style type="text/css">
	.st0{display:none;}
	.st1{fill:#004D9E;}
	.st2{font-family:'SegoeUI-Semibold';}
	.st3{font-size:18;}
	.st4{font-family:'MyriadPro-Regular';}
	.st5{font-size:14;}
</style>
<g id="Capa_1_1_" class="st0">
	
		<image style="display:inline;overflow:visible;enable-background:new    ;" width="703" height="242" xlink:href="C5419AFD.jpg"  transform="matrix(1 0 0 1 87 -1.730127e-005)">
	</image>
</g>
<g>
	<path class="st1" d="M372.2,36.5c0.9-0.2,2.2-0.3,4-0.3c1.8,0,3.2,0.4,4,1.1c0.8,0.7,1.4,1.8,1.4,3.1s-0.4,2.4-1.2,3.1
		c-1,1-2.5,1.4-4.3,1.4c-0.4,0-0.7,0-1-0.1v4.7h-3L372.2,36.5L372.2,36.5z M375.1,42.5c0.3,0.1,0.6,0.1,1,0.1c1.6,0,2.6-0.8,2.6-2.2
		c0-1.2-0.8-1.9-2.3-1.9c-0.6,0-1,0.1-1.2,0.1V42.5z"/>
	<path class="st1" d="M383.5,36.5c1-0.2,2.4-0.3,4-0.3c2,0,3.3,0.3,4.3,1c0.8,0.6,1.2,1.5,1.2,2.8c0,1.7-1.2,2.8-2.3,3.3v0.1
		c0.9,0.4,1.4,1.3,1.8,2.5c0.4,1.5,0.8,3.2,1.1,3.7h-3.1c-0.2-0.4-0.5-1.5-0.9-3.1c-0.4-1.6-0.9-2.1-2.1-2.1h-0.9v5.2h-3L383.5,36.5
		L383.5,36.5z M386.5,42.2h1.2c1.5,0,2.4-0.7,2.4-1.9c0-1.2-0.8-1.8-2.2-1.8c-0.7,0-1.1,0.1-1.4,0.1L386.5,42.2L386.5,42.2z"/>
	<path class="st1" d="M403,44h-4.9v3.1h5.4v2.4h-8.4V36.3h8.1v2.4h-5.2v2.7h4.9L403,44L403,44z"/>
	<path class="st1" d="M405.7,46.5c0.8,0.4,2,0.8,3.3,0.8c1.4,0,2.1-0.6,2.1-1.4c0-0.8-0.6-1.3-2.2-1.9c-2.2-0.8-3.6-2-3.6-3.9
		c0-2.3,1.9-4,5-4c1.5,0,2.6,0.3,3.4,0.7l-0.7,2.4c-0.5-0.3-1.5-0.6-2.8-0.6s-1.9,0.6-1.9,1.3c0,0.8,0.7,1.2,2.4,1.9
		c2.3,0.9,3.4,2.1,3.4,3.9c0,2.2-1.7,4.1-5.3,4.1c-1.5,0-3-0.4-3.7-0.8L405.7,46.5z"/>
	<path class="st1" d="M419.2,36.3v13.2h-3V36.3H419.2z"/>
	<path class="st1" d="M421.8,36.5c1.1-0.2,2.5-0.3,4-0.3c2.5,0,4.1,0.5,5.4,1.4c1.4,1,2.2,2.6,2.2,5c0,2.5-0.9,4.3-2.2,5.3
		c-1.4,1.2-3.5,1.7-6.1,1.7c-1.5,0-2.6-0.1-3.4-0.2L421.8,36.5L421.8,36.5z M424.8,47.3c0.3,0.1,0.7,0.1,1,0.1
		c2.7,0,4.5-1.5,4.5-4.6c0-2.7-1.6-4.2-4.2-4.2c-0.7,0-1.1,0.1-1.4,0.1L424.8,47.3L424.8,47.3z"/>
	<path class="st1" d="M443.3,44h-4.9v3.1h5.4v2.4h-8.4V36.3h8.1v2.4h-5.2v2.7h4.9V44z"/>
	<path class="st1" d="M445.9,49.5V36.3h3.5l2.7,4.8c0.8,1.4,1.6,3,2.2,4.5h0.1c-0.2-1.7-0.3-3.5-0.3-5.5v-3.9h2.7v13.2h-3.1
		l-2.8-5.1c-0.8-1.4-1.6-3.1-2.3-4.7l-0.1,0c0.1,1.7,0.1,3.6,0.1,5.8v4C448.6,49.5,445.9,49.5,445.9,49.5z"/>
	<path class="st1" d="M462,38.8h-3.5v-2.5h10.1v2.5H465v10.7h-3L462,38.8L462,38.8z"/>
	<path class="st1" d="M478,44h-4.9v3.1h5.4v2.4h-8.4V36.3h8.1v2.4h-5.2v2.7h4.9V44z"/>
</g>
<g>
	<path class="st1" d="M522,61H329V23h193V61z M330,60h191V24H330V60z"/>
</g>
<g>
	<g>
		<path class="st1" d="M522,127H329V89h193V127z M330,126h191V90H330V126z"/>
	</g>
	<text transform="matrix(1 0 0 1 346.5363 114.177)" class="st1 st2 st3">GERENTE GENERAL</text>
</g>
<g>
	<path class="st1" d="M750.5,136.4H549.8V84h200.7V136.4z M550.8,135h198.7V85.4H550.8V135z"/>
</g>
<text transform="matrix(1 0 0 1 596.7461 106)"><tspan x="0" y="0" class="st1 st2 st3">GERENCIA DE</tspan><tspan x="-26.5" y="21.6" class="st1 st2 st3">NUEVOS NEGOCIOS</tspan></text>
<g>
	<g>
		<path class="st1" d="M430.5,200.2l-1,3h-1.3l3.2-9.4h1.5l3.2,9.4h-1.3l-1-3H430.5z M433.6,199.2l-0.9-2.7
			c-0.2-0.6-0.3-1.2-0.5-1.7h0c-0.1,0.6-0.3,1.1-0.5,1.7l-0.9,2.7L433.6,199.2L433.6,199.2z"/>
		<path class="st1" d="M437.2,201.9c0.4,0.2,1,0.5,1.6,0.5c0.9,0,1.3-0.4,1.3-1c0-0.6-0.3-0.9-1.3-1.2c-1.2-0.4-1.8-1.1-1.8-1.9
			c0-1.1,0.9-2,2.3-2c0.7,0,1.3,0.2,1.7,0.4l-0.3,0.9c-0.3-0.2-0.8-0.4-1.4-0.4c-0.7,0-1.1,0.4-1.1,0.9c0,0.6,0.4,0.8,1.3,1.1
			c1.2,0.4,1.8,1,1.8,2c0,1.2-0.9,2-2.5,2c-0.7,0-1.4-0.2-1.9-0.5L437.2,201.9z"/>
		<path class="st1" d="M448.5,201.3c0,0.7,0,1.3,0.1,1.8h-1.1l-0.1-1.1h0c-0.3,0.5-1,1.3-2.2,1.3c-1.1,0-2.3-0.6-2.3-3v-3.9h1.2v3.7
			c0,1.3,0.4,2.1,1.5,2.1c0.8,0,1.4-0.6,1.6-1.1c0.1-0.2,0.1-0.4,0.1-0.6v-4.1h1.2L448.5,201.3L448.5,201.3z"/>
		<path class="st1" d="M450.6,198.2c0-0.7,0-1.3-0.1-1.8h1.1l0.1,1.1h0c0.3-0.6,1.1-1.3,2.2-1.3c0.9,0,2.4,0.6,2.4,2.9v4h-1.2v-3.9
			c0-1.1-0.4-2-1.6-2c-0.8,0-1.4,0.6-1.6,1.3c-0.1,0.2-0.1,0.4-0.1,0.6v4.1h-1.2L450.6,198.2L450.6,198.2z"/>
		<path class="st1" d="M459.7,194.4v1.9h1.8v0.9h-1.8v3.6c0,0.8,0.2,1.3,0.9,1.3c0.3,0,0.6,0,0.7-0.1l0.1,0.9
			c-0.2,0.1-0.6,0.2-1.1,0.2c-0.6,0-1-0.2-1.3-0.5c-0.3-0.4-0.5-1-0.5-1.8v-3.7h-1v-0.9h1v-1.6L459.7,194.4z"/>
		<path class="st1" d="M468.9,199.7c0,2.5-1.7,3.6-3.4,3.6c-1.8,0-3.2-1.3-3.2-3.5c0-2.3,1.5-3.6,3.3-3.6
			C467.6,196.2,468.9,197.6,468.9,199.7z M463.5,199.7c0,1.5,0.9,2.6,2,2.6c1.2,0,2-1.1,2-2.6c0-1.1-0.6-2.6-2-2.6
			S463.5,198.5,463.5,199.7z"/>
		<path class="st1" d="M470.3,201.9c0.4,0.2,1,0.5,1.6,0.5c0.9,0,1.3-0.4,1.3-1c0-0.6-0.3-0.9-1.3-1.2c-1.2-0.4-1.8-1.1-1.8-1.9
			c0-1.1,0.9-2,2.3-2c0.7,0,1.3,0.2,1.7,0.4l-0.3,0.9c-0.3-0.2-0.8-0.4-1.4-0.4c-0.7,0-1.1,0.4-1.1,0.9c0,0.6,0.4,0.8,1.3,1.1
			c1.2,0.4,1.8,1,1.8,2c0,1.2-0.9,2-2.5,2c-0.7,0-1.4-0.2-1.9-0.5L470.3,201.9z"/>
		<path class="st1" d="M478.9,193.7h1.2v8.4h4v1h-5.2V193.7z"/>
		<path class="st1" d="M486,200c0,1.7,1.1,2.3,2.3,2.3c0.9,0,1.4-0.2,1.9-0.3l0.2,0.9c-0.4,0.2-1.2,0.4-2.2,0.4
			c-2.1,0-3.3-1.4-3.3-3.4s1.2-3.6,3.2-3.6c2.2,0,2.8,1.9,2.8,3.2c0,0.3,0,0.4,0,0.6H486z M489.6,199.1c0-0.8-0.3-2-1.7-2
			c-1.2,0-1.8,1.1-1.9,2H489.6z"/>
		<path class="st1" d="M498.1,196.4c0,0.5-0.1,1-0.1,1.9v3.9c0,1.5-0.3,2.5-1,3.1c-0.7,0.6-1.6,0.8-2.5,0.8c-0.8,0-1.7-0.2-2.2-0.6
			l0.3-0.9c0.4,0.3,1.1,0.5,2,0.5c1.3,0,2.2-0.7,2.2-2.4v-0.8h0c-0.4,0.6-1.1,1.1-2.1,1.1c-1.7,0-2.9-1.4-2.9-3.3
			c0-2.3,1.5-3.6,3-3.6c1.2,0,1.8,0.6,2.1,1.2h0l0.1-1H498.1z M496.8,199c0-0.2,0-0.4-0.1-0.6c-0.2-0.7-0.8-1.3-1.7-1.3
			c-1.2,0-2,1-2,2.5c0,1.3,0.7,2.4,2,2.4c0.8,0,1.4-0.5,1.7-1.3c0.1-0.2,0.1-0.4,0.1-0.7L496.8,199L496.8,199z"/>
		<path class="st1" d="M503.8,203.1l-0.1-0.9h0c-0.4,0.5-1.1,1-2.1,1c-1.4,0-2.1-1-2.1-1.9c0-1.6,1.4-2.5,4.1-2.5v-0.1
			c0-0.6-0.2-1.6-1.5-1.6c-0.6,0-1.3,0.2-1.8,0.5l-0.3-0.8c0.6-0.4,1.4-0.6,2.2-0.6c2.1,0,2.6,1.4,2.6,2.8v2.5c0,0.6,0,1.2,0.1,1.6
			L503.8,203.1L503.8,203.1z M503.6,199.7c-1.3,0-2.9,0.2-2.9,1.5c0,0.8,0.5,1.2,1.2,1.2c0.9,0,1.4-0.6,1.6-1.1
			c0-0.1,0.1-0.3,0.1-0.4V199.7z"/>
		<path class="st1" d="M506.8,193.2h1.2v9.9h-1.2V193.2z"/>
		<path class="st1" d="M510.7,200c0,1.7,1.1,2.3,2.3,2.3c0.9,0,1.4-0.2,1.9-0.3l0.2,0.9c-0.4,0.2-1.2,0.4-2.2,0.4
			c-2.1,0-3.3-1.4-3.3-3.4s1.2-3.6,3.2-3.6c2.2,0,2.8,1.9,2.8,3.2c0,0.3,0,0.4,0,0.6H510.7z M514.3,199.1c0-0.8-0.3-2-1.7-2
			c-1.2,0-1.8,1.1-1.9,2H514.3z"/>
		<path class="st1" d="M516.9,201.9c0.4,0.2,1,0.5,1.6,0.5c0.9,0,1.3-0.4,1.3-1c0-0.6-0.3-0.9-1.3-1.2c-1.2-0.4-1.8-1.1-1.8-1.9
			c0-1.1,0.9-2,2.3-2c0.7,0,1.3,0.2,1.7,0.4l-0.3,0.9c-0.3-0.2-0.8-0.4-1.4-0.4c-0.7,0-1.1,0.4-1.1,0.9c0,0.6,0.4,0.8,1.3,1.1
			c1.2,0.4,1.8,1,1.8,2c0,1.2-0.9,2-2.5,2c-0.7,0-1.4-0.2-1.9-0.5L516.9,201.9z"/>
	</g>
	<g>
		<path class="st1" d="M534.4,218h-119v-38h119V218z M416.4,217h117v-36h-117V217z"/>
	</g>
</g>
<g>
	<g>
		<path class="st1" d="M644.8,192.1c0,3.2-2,4.9-4.4,4.9c-2.5,0-4.2-1.9-4.2-4.8c0-3,1.9-4.9,4.4-4.9
			C643.1,187.4,644.8,189.3,644.8,192.1z M637.5,192.3c0,2,1.1,3.8,3,3.8c1.9,0,3-1.8,3-3.9c0-1.9-1-3.8-3-3.8
			C638.5,188.4,637.5,190.2,637.5,192.3z"/>
		<path class="st1" d="M646.3,192.4c0-0.9,0-1.6-0.1-2.2h1.1l0.1,1.2h0c0.5-0.8,1.3-1.3,2.4-1.3c1.6,0,2.9,1.4,2.9,3.4
			c0,2.4-1.5,3.6-3.1,3.6c-0.9,0-1.7-0.4-2.1-1.1h0v3.7h-1.2L646.3,192.4L646.3,192.4z M647.5,194.2c0,0.2,0,0.3,0.1,0.5
			c0.2,0.9,1,1.4,1.8,1.4c1.3,0,2-1.1,2-2.6c0-1.4-0.7-2.5-2-2.5c-0.8,0-1.6,0.6-1.9,1.5c0,0.2-0.1,0.3-0.1,0.5L647.5,194.2
			L647.5,194.2z"/>
		<path class="st1" d="M654.9,193.8c0,1.7,1.1,2.3,2.3,2.3c0.9,0,1.4-0.2,1.9-0.4l0.2,0.9c-0.4,0.2-1.2,0.4-2.2,0.4
			c-2.1,0-3.3-1.4-3.3-3.4c0-2,1.2-3.6,3.2-3.6c2.2,0,2.8,1.9,2.8,3.2c0,0.3,0,0.4,0,0.6H654.9z M658.5,192.9c0-0.8-0.3-2-1.7-2
			c-1.2,0-1.8,1.1-1.9,2H658.5z"/>
		<path class="st1" d="M661.2,192.3c0-0.8,0-1.5-0.1-2.1h1.1l0,1.3h0.1c0.3-0.9,1-1.5,1.9-1.5c0.1,0,0.2,0,0.3,0v1.2
			c-0.1,0-0.3,0-0.4,0c-0.9,0-1.5,0.7-1.6,1.6c0,0.2-0.1,0.4-0.1,0.6v3.6h-1.2L661.2,192.3L661.2,192.3z"/>
		<path class="st1" d="M669.4,196.9l-0.1-0.9h0c-0.4,0.5-1.1,1-2.1,1c-1.4,0-2.1-1-2.1-1.9c0-1.6,1.4-2.5,4.1-2.5v-0.1
			c0-0.6-0.2-1.6-1.5-1.6c-0.6,0-1.3,0.2-1.8,0.5l-0.3-0.8c0.6-0.4,1.4-0.6,2.2-0.6c2.1,0,2.6,1.4,2.6,2.8v2.5c0,0.6,0,1.2,0.1,1.6
			L669.4,196.9L669.4,196.9z M669.3,193.5c-1.3,0-2.9,0.2-2.9,1.5c0,0.8,0.5,1.2,1.2,1.2c0.9,0,1.4-0.6,1.6-1.1
			c0-0.1,0.1-0.3,0.1-0.4L669.3,193.5L669.3,193.5z"/>
		<path class="st1" d="M677.2,196.7c-0.3,0.2-1,0.4-1.9,0.4c-2,0-3.4-1.4-3.4-3.4c0-2.1,1.4-3.6,3.6-3.6c0.7,0,1.4,0.2,1.7,0.3
			l-0.3,0.9c-0.3-0.2-0.8-0.3-1.4-0.3c-1.5,0-2.4,1.1-2.4,2.5c0,1.6,1,2.5,2.3,2.5c0.7,0,1.2-0.2,1.5-0.3L677.2,196.7z"/>
		<path class="st1" d="M680,188.3c0,0.4-0.3,0.8-0.8,0.8c-0.4,0-0.7-0.3-0.7-0.8c0-0.4,0.3-0.8,0.8-0.8
			C679.7,187.5,680,187.8,680,188.3z M678.7,196.9v-6.7h1.2v6.7H678.7z"/>
		<path class="st1" d="M688,193.5c0,2.5-1.7,3.6-3.4,3.6c-1.8,0-3.2-1.3-3.2-3.5c0-2.3,1.5-3.6,3.3-3.6
			C686.7,190,688,191.4,688,193.5z M682.7,193.5c0,1.5,0.8,2.6,2,2.6c1.2,0,2-1.1,2-2.6c0-1.1-0.6-2.6-2-2.6
			S682.7,192.3,682.7,193.5z"/>
		<path class="st1" d="M689.6,192c0-0.7,0-1.3-0.1-1.8h1.1l0.1,1.1h0c0.3-0.6,1.1-1.3,2.2-1.3c0.9,0,2.4,0.6,2.4,2.9v4h-1.2V193
			c0-1.1-0.4-2-1.6-2c-0.8,0-1.4,0.6-1.6,1.3c-0.1,0.2-0.1,0.4-0.1,0.6v4.1h-1.2L689.6,192L689.6,192z"/>
		<path class="st1" d="M698,193.8c0,1.7,1.1,2.3,2.3,2.3c0.9,0,1.4-0.2,1.9-0.4l0.2,0.9c-0.4,0.2-1.2,0.4-2.2,0.4
			c-2.1,0-3.3-1.4-3.3-3.4c0-2,1.2-3.6,3.2-3.6c2.2,0,2.8,1.9,2.8,3.2c0,0.3,0,0.4,0,0.6H698z M701.6,192.9c0-0.8-0.3-2-1.7-2
			c-1.2,0-1.8,1.1-1.9,2H701.6z"/>
		<path class="st1" d="M704.1,195.6c0.4,0.2,1,0.5,1.6,0.5c0.9,0,1.3-0.4,1.3-1c0-0.6-0.3-0.9-1.3-1.2c-1.2-0.4-1.8-1.1-1.8-1.9
			c0-1.1,0.9-2,2.3-2c0.7,0,1.3,0.2,1.7,0.4l-0.3,0.9c-0.3-0.2-0.8-0.4-1.4-0.4c-0.7,0-1.1,0.4-1.1,0.9c0,0.6,0.4,0.8,1.3,1.1
			c1.2,0.4,1.8,1,1.8,2c0,1.2-0.9,2-2.5,2c-0.7,0-1.4-0.2-1.9-0.5L704.1,195.6z"/>
		<path class="st1" d="M626.6,200.6c0.6-0.1,1.4-0.2,2.3-0.2c1.2,0,2.1,0.3,2.6,0.8c0.5,0.4,0.8,1.1,0.8,2c0,0.9-0.3,1.5-0.7,2
			c-0.6,0.7-1.7,1-2.9,1c-0.4,0-0.7,0-1-0.1v3.8h-1.2L626.6,200.6L626.6,200.6z M627.8,205.2c0.3,0.1,0.6,0.1,1,0.1
			c1.5,0,2.4-0.7,2.4-2c0-1.2-0.9-1.8-2.2-1.8c-0.5,0-0.9,0-1.1,0.1L627.8,205.2L627.8,205.2z"/>
		<path class="st1" d="M633.9,200h1.2v9.9h-1.2V200z"/>
		<path class="st1" d="M640.9,209.9l-0.1-0.9h0c-0.4,0.5-1.1,1-2.1,1c-1.4,0-2.1-1-2.1-1.9c0-1.6,1.4-2.5,4.1-2.5v-0.1
			c0-0.6-0.2-1.6-1.5-1.6c-0.6,0-1.3,0.2-1.8,0.5l-0.3-0.8c0.6-0.4,1.4-0.6,2.2-0.6c2.1,0,2.6,1.4,2.6,2.8v2.5c0,0.6,0,1.2,0.1,1.6
			L640.9,209.9L640.9,209.9z M640.8,206.5c-1.3,0-2.9,0.2-2.9,1.5c0,0.8,0.5,1.2,1.2,1.2c0.9,0,1.4-0.6,1.6-1.1
			c0-0.1,0.1-0.3,0.1-0.4V206.5z"/>
		<path class="st1" d="M643.9,205c0-0.7,0-1.3-0.1-1.8h1.1l0.1,1.1h0c0.3-0.6,1.1-1.3,2.2-1.3c0.9,0,2.4,0.6,2.4,2.9v4h-1.2V206
			c0-1.1-0.4-2-1.6-2c-0.8,0-1.4,0.6-1.6,1.3c-0.1,0.2-0.1,0.4-0.1,0.6v4.1h-1.2L643.9,205L643.9,205z"/>
		<path class="st1" d="M653.1,201.2v1.9h1.8v0.9h-1.8v3.6c0,0.8,0.2,1.3,0.9,1.3c0.3,0,0.6,0,0.7-0.1l0.1,0.9
			c-0.2,0.1-0.6,0.2-1.1,0.2c-0.6,0-1-0.2-1.3-0.5c-0.3-0.4-0.5-1-0.5-1.8v-3.7h-1v-0.9h1v-1.6L653.1,201.2z"/>
		<path class="st1" d="M659.9,209.9l-0.1-0.9h0c-0.4,0.5-1.1,1-2.1,1c-1.4,0-2.1-1-2.1-1.9c0-1.6,1.4-2.5,4.1-2.5v-0.1
			c0-0.6-0.2-1.6-1.5-1.6c-0.6,0-1.3,0.2-1.8,0.5l-0.3-0.8c0.6-0.4,1.4-0.6,2.2-0.6c2.1,0,2.6,1.4,2.6,2.8v2.5c0,0.6,0,1.2,0.1,1.6
			L659.9,209.9L659.9,209.9z M659.8,206.5c-1.3,0-2.9,0.2-2.9,1.5c0,0.8,0.5,1.2,1.2,1.2c0.9,0,1.4-0.6,1.6-1.1
			c0-0.1,0.1-0.3,0.1-0.4V206.5z"/>
		<path class="st1" d="M665.9,209.9v-9.4h1.3l3,4.8c0.7,1.1,1.2,2.1,1.7,3.1l0,0c-0.1-1.3-0.1-2.4-0.1-3.9v-3.9h1.1v9.4h-1.2l-3-4.8
			c-0.7-1-1.3-2.1-1.8-3.1l0,0c0.1,1.2,0.1,2.3,0.1,3.9v4L665.9,209.9L665.9,209.9z"/>
		<path class="st1" d="M675.7,206.8c0,1.7,1.1,2.3,2.3,2.3c0.9,0,1.4-0.2,1.9-0.4l0.2,0.9c-0.4,0.2-1.2,0.4-2.2,0.4
			c-2.1,0-3.3-1.4-3.3-3.4c0-2,1.2-3.6,3.2-3.6c2.2,0,2.8,1.9,2.8,3.2c0,0.3,0,0.4,0,0.6H675.7z M679.3,205.9c0-0.8-0.3-2-1.7-2
			c-1.2,0-1.8,1.1-1.9,2H679.3z"/>
		<path class="st1" d="M687.7,208.1c0,0.7,0,1.3,0.1,1.8h-1.1l-0.1-1.1h0c-0.3,0.5-1,1.3-2.2,1.3c-1.1,0-2.3-0.6-2.3-3v-3.9h1.2v3.7
			c0,1.3,0.4,2.1,1.5,2.1c0.8,0,1.4-0.6,1.6-1.1c0.1-0.2,0.1-0.4,0.1-0.6v-4.1h1.2L687.7,208.1L687.7,208.1z"/>
		<path class="st1" d="M694.3,208.9L694.3,208.9c-0.4,0.7-1.1,1.2-2.2,1.2c-1.6,0-2.9-1.4-2.9-3.4c0-2.5,1.6-3.6,3.1-3.6
			c1,0,1.7,0.5,2.1,1.2h0l0-1h1.2c0,0.6,0,1.2,0,1.9v7.6h-1.2L694.3,208.9L694.3,208.9z M694.3,205.9c0-0.2,0-0.4-0.1-0.5
			c-0.2-0.8-0.8-1.4-1.8-1.4c-1.3,0-2,1.1-2,2.6c0,1.3,0.6,2.5,2,2.5c0.8,0,1.5-0.5,1.8-1.3c0.1-0.2,0.1-0.4,0.1-0.6V205.9z"/>
		<path class="st1" d="M703.2,208.1c0,0.7,0,1.3,0.1,1.8h-1.1l-0.1-1.1h0c-0.3,0.5-1,1.3-2.2,1.3c-1.1,0-2.3-0.6-2.3-3v-3.9h1.2v3.7
			c0,1.3,0.4,2.1,1.5,2.1c0.8,0,1.4-0.6,1.6-1.1c0.1-0.2,0.1-0.4,0.1-0.6v-4.1h1.2L703.2,208.1L703.2,208.1z"/>
		<path class="st1" d="M705.9,206.8c0,1.7,1.1,2.3,2.3,2.3c0.9,0,1.4-0.2,1.9-0.4l0.2,0.9c-0.4,0.2-1.2,0.4-2.2,0.4
			c-2.1,0-3.3-1.4-3.3-3.4c0-2,1.2-3.6,3.2-3.6c2.2,0,2.8,1.9,2.8,3.2c0,0.3,0,0.4,0,0.6H705.9z M709.5,205.9c0-0.8-0.3-2-1.7-2
			c-1.2,0-1.8,1.1-1.9,2H709.5z M709.8,200.2l-1.7,2h-0.9l1.2-2H709.8z"/>
		<path class="st1" d="M712.2,205c0-0.7,0-1.3-0.1-1.8h1.1l0.1,1.1h0c0.3-0.6,1.1-1.3,2.2-1.3c0.9,0,2.4,0.6,2.4,2.9v4h-1.2V206
			c0-1.1-0.4-2-1.6-2c-0.8,0-1.4,0.6-1.6,1.3c-0.1,0.2-0.1,0.4-0.1,0.6v4.1h-1.2L712.2,205L712.2,205z"/>
	</g>
	<g>
		<path class="st1" d="M732.1,218h-119v-38h119V218z M614.1,217h117v-36h-117V217z"/>
	</g>
</g>
<g>
	<g>
		<path class="st1" d="M336.7,218h-119v-38h119V218z M218.7,217h117v-36h-117V217z"/>
	</g>
	<g>
		<path class="st1" d="M238.8,194c0.6-0.1,1.5-0.2,2.3-0.2c1.3,0,2.1,0.2,2.7,0.8c0.5,0.4,0.7,1.1,0.7,1.8c0,1.2-0.8,2.1-1.8,2.4v0
			c0.7,0.3,1.2,0.9,1.4,1.9c0.3,1.3,0.5,2.2,0.7,2.6h-1.3c-0.2-0.3-0.4-1.1-0.6-2.2c-0.3-1.3-0.8-1.8-1.9-1.8H240v4.1h-1.2V194z
			 M240,198.3h1.2c1.3,0,2.1-0.7,2.1-1.8c0-1.2-0.9-1.7-2.2-1.8c-0.6,0-1,0.1-1.2,0.1V198.3z"/>
		<path class="st1" d="M246.3,194c0.6-0.1,1.5-0.2,2.3-0.2c1.3,0,2.1,0.2,2.7,0.8c0.5,0.4,0.7,1.1,0.7,1.8c0,1.2-0.8,2.1-1.8,2.4v0
			c0.7,0.3,1.2,0.9,1.4,1.9c0.3,1.3,0.5,2.2,0.7,2.6h-1.3c-0.2-0.3-0.4-1.1-0.6-2.2c-0.3-1.3-0.8-1.8-1.9-1.8h-1.1v4.1h-1.2V194z
			 M247.5,198.3h1.2c1.3,0,2.1-0.7,2.1-1.8c0-1.2-0.9-1.7-2.2-1.8c-0.6,0-1,0.1-1.2,0.1V198.3z"/>
		<path class="st1" d="M253.4,202.5c0-0.5,0.3-0.9,0.8-0.9c0.5,0,0.8,0.4,0.8,0.9c0,0.5-0.3,0.9-0.8,0.9
			C253.8,203.4,253.4,203,253.4,202.5z"/>
		<path class="st1" d="M257.8,193.9v3.9h4.5v-3.9h1.2v9.4h-1.2v-4.4h-4.5v4.4h-1.2v-9.4H257.8z"/>
		<path class="st1" d="M266.9,193.9v3.9h4.5v-3.9h1.2v9.4h-1.2v-4.4h-4.5v4.4h-1.2v-9.4H266.9z"/>
		<path class="st1" d="M274.5,202.5c0-0.5,0.3-0.9,0.8-0.9c0.5,0,0.8,0.4,0.8,0.9c0,0.5-0.3,0.9-0.8,0.9
			C274.8,203.4,274.5,203,274.5,202.5z"/>
		<path class="st1" d="M281.1,196.5l1.5,4c0.2,0.4,0.3,1,0.4,1.4h0c0.1-0.4,0.3-0.9,0.4-1.4l1.3-4h1.3l-1.8,4.8
			c-0.9,2.3-1.5,3.5-2.3,4.2c-0.6,0.5-1.2,0.7-1.5,0.8l-0.3-1c0.3-0.1,0.7-0.3,1.1-0.6c0.3-0.3,0.8-0.7,1-1.4
			c0.1-0.1,0.1-0.2,0.1-0.3c0-0.1,0-0.2-0.1-0.3l-2.5-6.2L281.1,196.5L281.1,196.5z"/>
		<path class="st1" d="M290.2,194c0.6-0.1,1.5-0.2,2.3-0.2c1.3,0,2.1,0.2,2.7,0.8c0.5,0.4,0.7,1.1,0.7,1.8c0,1.2-0.8,2.1-1.8,2.4v0
			c0.7,0.3,1.2,0.9,1.4,1.9c0.3,1.3,0.5,2.2,0.7,2.6H295c-0.2-0.3-0.4-1.1-0.6-2.2c-0.3-1.3-0.8-1.8-1.9-1.8h-1.1v4.1h-1.2V194z
			 M291.4,198.3h1.2c1.3,0,2.1-0.7,2.1-1.8c0-1.2-0.9-1.7-2.2-1.8c-0.6,0-1,0.1-1.2,0.1V198.3z"/>
		<path class="st1" d="M297.7,194c0.6-0.1,1.5-0.2,2.3-0.2c1.3,0,2.1,0.2,2.7,0.8c0.5,0.4,0.7,1.1,0.7,1.8c0,1.2-0.8,2.1-1.8,2.4v0
			c0.7,0.3,1.2,0.9,1.4,1.9c0.3,1.3,0.5,2.2,0.7,2.6h-1.3c-0.2-0.3-0.4-1.1-0.6-2.2c-0.3-1.3-0.8-1.8-1.9-1.8h-1.1v4.1h-1.2V194z
			 M298.9,198.3h1.2c1.3,0,2.1-0.7,2.1-1.8c0-1.2-0.9-1.7-2.2-1.8c-0.6,0-1,0.1-1.2,0.1V198.3z"/>
		<path class="st1" d="M304.8,202.5c0-0.5,0.3-0.9,0.8-0.9c0.5,0,0.8,0.4,0.8,0.9c0,0.5-0.3,0.9-0.8,0.9
			C305.2,203.4,304.8,203,304.8,202.5z"/>
		<path class="st1" d="M309.3,193.9v9.4H308v-9.4H309.3z"/>
		<path class="st1" d="M312.6,193.9v9.4h-1.2v-9.4H312.6z"/>
		<path class="st1" d="M314.4,202.5c0-0.5,0.3-0.9,0.8-0.9c0.5,0,0.8,0.4,0.8,0.9c0,0.5-0.3,0.9-0.8,0.9
			C314.7,203.4,314.4,203,314.4,202.5z"/>
	</g>
</g>
<g>
	<g>
		<path class="st1" d="M139,218H20v-38h119V218z M21,217h117v-36H21V217z"/>
	</g>
	<g>
		<path class="st1" d="M32.8,203.1c-0.5,0.2-1.6,0.5-2.9,0.5c-1.4,0-2.6-0.4-3.5-1.2c-0.8-0.8-1.3-2-1.3-3.5c0-2.8,1.9-4.8,5.1-4.8
			c1.1,0,1.9,0.2,2.3,0.4l-0.3,1c-0.5-0.2-1.1-0.4-2.1-0.4c-2.3,0-3.8,1.4-3.8,3.8c0,2.4,1.4,3.8,3.6,3.8c0.8,0,1.3-0.1,1.6-0.3
			v-2.8h-1.9v-1h3.1L32.8,203.1L32.8,203.1z"/>
		<path class="st1" d="M35.4,200.4c0,1.7,1.1,2.3,2.3,2.3c0.9,0,1.4-0.2,1.9-0.3l0.2,0.9c-0.4,0.2-1.2,0.4-2.2,0.4
			c-2.1,0-3.3-1.4-3.3-3.4c0-2,1.2-3.6,3.2-3.6c2.2,0,2.8,1.9,2.8,3.2c0,0.3,0,0.4,0,0.6L35.4,200.4L35.4,200.4z M39,199.5
			c0-0.8-0.3-2-1.7-2c-1.2,0-1.8,1.1-1.9,2H39z"/>
		<path class="st1" d="M41.5,202.3c0.4,0.2,1,0.5,1.6,0.5c0.9,0,1.3-0.4,1.3-1c0-0.6-0.3-0.9-1.3-1.2c-1.2-0.4-1.8-1.1-1.8-1.9
			c0-1.1,0.9-2,2.3-2c0.7,0,1.3,0.2,1.7,0.4l-0.3,0.9c-0.3-0.2-0.8-0.4-1.4-0.4c-0.7,0-1.1,0.4-1.1,0.9c0,0.6,0.4,0.8,1.3,1.1
			c1.2,0.4,1.8,1,1.8,2c0,1.2-0.9,2-2.5,2c-0.7,0-1.4-0.2-1.9-0.5L41.5,202.3z"/>
		<path class="st1" d="M48.7,194.8v1.9h1.8v0.9h-1.8v3.6c0,0.8,0.2,1.3,0.9,1.3c0.3,0,0.6,0,0.7-0.1l0.1,0.9
			c-0.2,0.1-0.6,0.2-1.1,0.2c-0.6,0-1-0.2-1.3-0.5c-0.3-0.4-0.5-1-0.5-1.8v-3.7h-1v-0.9h1v-1.6L48.7,194.8z"/>
		<path class="st1" d="M53.2,194.9c0,0.4-0.3,0.8-0.8,0.8c-0.4,0-0.7-0.3-0.7-0.8c0-0.4,0.3-0.8,0.8-0.8
			C52.9,194.1,53.2,194.5,53.2,194.9z M51.8,203.5v-6.7h1.2v6.7H51.8z"/>
		<path class="st1" d="M61.2,200.1c0,2.5-1.7,3.6-3.4,3.6c-1.8,0-3.2-1.3-3.2-3.5c0-2.3,1.5-3.6,3.3-3.6
			C59.9,196.6,61.2,198,61.2,200.1z M55.8,200.2c0,1.5,0.8,2.6,2,2.6c1.2,0,2-1.1,2-2.6c0-1.1-0.6-2.6-2-2.6S55.8,198.9,55.8,200.2z
			 M59.7,193.9l-1.7,2h-0.9l1.2-2H59.7z"/>
		<path class="st1" d="M62.7,198.6c0-0.7,0-1.3-0.1-1.8h1.1l0.1,1.1h0c0.3-0.6,1.1-1.3,2.2-1.3c0.9,0,2.4,0.6,2.4,2.9v4h-1.2v-3.9
			c0-1.1-0.4-2-1.6-2c-0.8,0-1.4,0.6-1.6,1.3c-0.1,0.2-0.1,0.4-0.1,0.6v4.1h-1.2L62.7,198.6L62.7,198.6z"/>
		<path class="st1" d="M79.3,193.6v8.1c0,0.6,0,1.3,0.1,1.7h-1.1l-0.1-1.2h0c-0.4,0.8-1.2,1.3-2.3,1.3c-1.6,0-2.9-1.4-2.9-3.4
			c0-2.2,1.4-3.6,3-3.6c1,0,1.7,0.5,2,1h0v-4L79.3,193.6L79.3,193.6z M78,199.5c0-0.2,0-0.4-0.1-0.5c-0.2-0.8-0.8-1.4-1.8-1.4
			c-1.3,0-2,1.1-2,2.6c0,1.4,0.7,2.5,2,2.5c0.8,0,1.6-0.5,1.8-1.5c0-0.2,0.1-0.3,0.1-0.5L78,199.5L78,199.5z"/>
		<path class="st1" d="M82,200.4c0,1.7,1.1,2.3,2.3,2.3c0.9,0,1.4-0.2,1.9-0.3l0.2,0.9c-0.4,0.2-1.2,0.4-2.2,0.4
			c-2.1,0-3.3-1.4-3.3-3.4c0-2,1.2-3.6,3.2-3.6c2.2,0,2.8,1.9,2.8,3.2c0,0.3,0,0.4,0,0.6L82,200.4L82,200.4z M85.6,199.5
			c0-0.8-0.3-2-1.7-2c-1.2,0-1.8,1.1-1.9,2H85.6z"/>
		<path class="st1" d="M91.3,194.3c0.6-0.1,1.5-0.2,2.3-0.2c1.3,0,2.1,0.2,2.7,0.8c0.5,0.4,0.7,1.1,0.7,1.8c0,1.2-0.8,2.1-1.8,2.4v0
			c0.7,0.3,1.2,0.9,1.4,1.9c0.3,1.3,0.5,2.2,0.7,2.6h-1.3c-0.2-0.3-0.4-1.1-0.6-2.2c-0.3-1.3-0.8-1.8-1.9-1.8h-1.1v4.1h-1.2
			L91.3,194.3L91.3,194.3z M92.5,198.5h1.2c1.3,0,2.1-0.7,2.1-1.8c0-1.2-0.9-1.7-2.2-1.8c-0.6,0-1,0.1-1.2,0.1V198.5z"/>
		<path class="st1" d="M100.2,194.9c0,0.4-0.3,0.8-0.8,0.8c-0.4,0-0.7-0.3-0.7-0.8c0-0.4,0.3-0.8,0.8-0.8
			C99.9,194.1,100.2,194.5,100.2,194.9z M98.9,203.5v-6.7h1.2v6.7H98.9z"/>
		<path class="st1" d="M102.8,200.4c0,1.7,1.1,2.3,2.3,2.3c0.9,0,1.4-0.2,1.9-0.3l0.2,0.9c-0.4,0.2-1.2,0.4-2.2,0.4
			c-2.1,0-3.3-1.4-3.3-3.4c0-2,1.2-3.6,3.2-3.6c2.2,0,2.8,1.9,2.8,3.2c0,0.3,0,0.4,0,0.6L102.8,200.4L102.8,200.4z M106.4,199.5
			c0-0.8-0.3-2-1.7-2c-1.2,0-1.8,1.1-1.9,2H106.4z"/>
		<path class="st1" d="M108.9,202.3c0.4,0.2,1,0.5,1.6,0.5c0.9,0,1.3-0.4,1.3-1c0-0.6-0.3-0.9-1.3-1.2c-1.2-0.4-1.8-1.1-1.8-1.9
			c0-1.1,0.9-2,2.3-2c0.7,0,1.3,0.2,1.7,0.4l-0.3,0.9c-0.3-0.2-0.8-0.4-1.4-0.4c-0.7,0-1.1,0.4-1.1,0.9c0,0.6,0.4,0.8,1.3,1.1
			c1.2,0.4,1.8,1,1.8,2c0,1.2-0.9,2-2.5,2c-0.7,0-1.4-0.2-1.9-0.5L108.9,202.3z"/>
		<path class="st1" d="M120.4,196.8c0,0.5-0.1,1-0.1,1.9v3.9c0,1.5-0.3,2.5-1,3.1c-0.7,0.6-1.6,0.8-2.5,0.8c-0.8,0-1.7-0.2-2.2-0.6
			l0.3-0.9c0.4,0.3,1.1,0.5,2,0.5c1.3,0,2.2-0.7,2.2-2.4v-0.8h0c-0.4,0.6-1.1,1.1-2.1,1.1c-1.7,0-2.9-1.4-2.9-3.3
			c0-2.3,1.5-3.6,3-3.6c1.2,0,1.8,0.6,2.1,1.2h0l0.1-1H120.4z M119.2,199.4c0-0.2,0-0.4-0.1-0.6c-0.2-0.7-0.8-1.3-1.7-1.3
			c-1.2,0-2,1-2,2.5c0,1.3,0.7,2.4,2,2.4c0.8,0,1.4-0.5,1.7-1.3c0.1-0.2,0.1-0.4,0.1-0.7L119.2,199.4L119.2,199.4z"/>
		<path class="st1" d="M128.5,200.1c0,2.5-1.7,3.6-3.4,3.6c-1.8,0-3.2-1.3-3.2-3.5c0-2.3,1.5-3.6,3.3-3.6
			C127.2,196.6,128.5,198,128.5,200.1z M123.2,200.2c0,1.5,0.8,2.6,2,2.6c1.2,0,2-1.1,2-2.6c0-1.1-0.6-2.6-2-2.6
			S123.2,198.9,123.2,200.2z"/>
		<path class="st1" d="M129.9,202.3c0.4,0.2,1,0.5,1.6,0.5c0.9,0,1.3-0.4,1.3-1c0-0.6-0.3-0.9-1.3-1.2c-1.2-0.4-1.8-1.1-1.8-1.9
			c0-1.1,0.9-2,2.3-2c0.7,0,1.3,0.2,1.7,0.4l-0.3,0.9c-0.3-0.2-0.8-0.4-1.4-0.4c-0.7,0-1.1,0.4-1.1,0.9c0,0.6,0.4,0.8,1.3,1.1
			c1.2,0.4,1.8,1,1.8,2c0,1.2-0.9,2-2.5,2c-0.7,0-1.4-0.2-1.9-0.5L129.9,202.3z"/>
	</g>
</g>
<g>
	<rect x="424" y="61" class="st1" width="1" height="29"/>
</g>
<g>
	<rect x="424" y="127" class="st1" width="1" height="29"/>
</g>
<g>
	<rect x="79" y="155" class="st1" width="1" height="16"/>
</g>
<g>
	<g>
		<g>
			<path class="st1" d="M237.9,274h-119v-38h119V274z M119.9,273h117v-36h-117V273z"/>
		</g>
		<g>
			<path class="st1" d="M137.3,250.1l-1,3H135l3.2-9.4h1.5l3.2,9.4h-1.3l-1-3H137.3z M140.4,249.1l-0.9-2.7
				c-0.2-0.6-0.3-1.2-0.5-1.7h0c-0.1,0.6-0.3,1.1-0.5,1.7l-0.9,2.7H140.4z"/>
			<path class="st1" d="M149.9,243.1v8.1c0,0.6,0,1.3,0.1,1.7h-1.1l-0.1-1.2h0c-0.4,0.8-1.2,1.3-2.3,1.3c-1.6,0-2.9-1.4-2.9-3.4
				c0-2.2,1.4-3.6,3-3.6c1,0,1.7,0.5,2,1h0v-4L149.9,243.1L149.9,243.1z M148.7,249c0-0.2,0-0.4-0.1-0.5c-0.2-0.8-0.9-1.4-1.8-1.4
				c-1.3,0-2,1.1-2,2.6c0,1.4,0.7,2.5,2,2.5c0.8,0,1.6-0.5,1.8-1.5c0-0.2,0.1-0.3,0.1-0.5L148.7,249L148.7,249z"/>
			<path class="st1" d="M151.9,248.1c0-0.7,0-1.3-0.1-1.8h1.1l0.1,1.1h0c0.4-0.6,1-1.2,2.1-1.2c0.9,0,1.6,0.6,1.9,1.4h0
				c0.2-0.4,0.5-0.7,0.8-0.9c0.4-0.3,0.9-0.5,1.5-0.5c0.9,0,2.2,0.6,2.2,2.9v4h-1.2v-3.8c0-1.3-0.5-2.1-1.5-2.1
				c-0.7,0-1.2,0.5-1.4,1.1c-0.1,0.2-0.1,0.4-0.1,0.6v4.2h-1.2v-4c0-1.1-0.5-1.9-1.4-1.9c-0.8,0-1.3,0.6-1.5,1.2
				c-0.1,0.2-0.1,0.4-0.1,0.6v4.1h-1.2L151.9,248.1L151.9,248.1z"/>
			<path class="st1" d="M164.9,244.4c0,0.4-0.3,0.8-0.8,0.8c-0.4,0-0.7-0.3-0.7-0.8c0-0.4,0.3-0.8,0.8-0.8
				C164.6,243.6,164.9,244,164.9,244.4z M163.6,253v-6.7h1.2v6.7H163.6z"/>
			<path class="st1" d="M166.8,248.1c0-0.7,0-1.3-0.1-1.8h1.1l0.1,1.1h0c0.3-0.6,1.1-1.3,2.2-1.3c0.9,0,2.4,0.6,2.4,2.9v4h-1.2v-3.9
				c0-1.1-0.4-2-1.6-2c-0.8,0-1.4,0.6-1.6,1.3c-0.1,0.2-0.1,0.4-0.1,0.6v4.1h-1.2L166.8,248.1L166.8,248.1z"/>
			<path class="st1" d="M175.9,244.4c0,0.4-0.3,0.8-0.8,0.8c-0.4,0-0.7-0.3-0.7-0.8c0-0.4,0.3-0.8,0.8-0.8
				C175.6,243.6,175.9,244,175.9,244.4z M174.6,253v-6.7h1.2v6.7H174.6z"/>
			<path class="st1" d="M177.6,251.8c0.4,0.2,1,0.5,1.6,0.5c0.9,0,1.3-0.4,1.3-1c0-0.6-0.3-0.9-1.3-1.2c-1.2-0.4-1.8-1.1-1.8-1.9
				c0-1.1,0.9-2,2.3-2c0.7,0,1.3,0.2,1.7,0.4l-0.3,0.9c-0.3-0.2-0.8-0.4-1.4-0.4c-0.7,0-1.1,0.4-1.1,0.9c0,0.6,0.4,0.8,1.3,1.1
				c1.2,0.4,1.8,1,1.8,2c0,1.2-0.9,2-2.5,2c-0.7,0-1.4-0.2-1.9-0.5L177.6,251.8z"/>
			<path class="st1" d="M184.8,244.3v1.9h1.8v0.9h-1.8v3.6c0,0.8,0.2,1.3,0.9,1.3c0.3,0,0.6,0,0.7-0.1l0.1,0.9
				c-0.2,0.1-0.6,0.2-1.1,0.2c-0.6,0-1-0.2-1.3-0.5c-0.3-0.4-0.5-1-0.5-1.8v-3.7h-1v-0.9h1v-1.6L184.8,244.3z"/>
			<path class="st1" d="M187.9,248.4c0-0.8,0-1.5-0.1-2.1h1.1l0,1.3h0.1c0.3-0.9,1-1.5,1.9-1.5c0.1,0,0.2,0,0.3,0v1.2
				c-0.1,0-0.3,0-0.4,0c-0.9,0-1.5,0.7-1.6,1.6c0,0.2-0.1,0.4-0.1,0.6v3.6h-1.2L187.9,248.4L187.9,248.4z"/>
			<path class="st1" d="M196.2,253l-0.1-0.9h0c-0.4,0.5-1.1,1-2.1,1c-1.4,0-2.1-1-2.1-1.9c0-1.6,1.4-2.5,4.1-2.5v-0.1
				c0-0.6-0.2-1.6-1.5-1.6c-0.6,0-1.3,0.2-1.8,0.5l-0.3-0.8c0.6-0.4,1.4-0.6,2.2-0.6c2.1,0,2.6,1.4,2.6,2.8v2.5c0,0.6,0,1.2,0.1,1.6
				L196.2,253L196.2,253z M196,249.6c-1.3,0-2.9,0.2-2.9,1.5c0,0.8,0.5,1.2,1.2,1.2c0.9,0,1.4-0.6,1.6-1.1c0-0.1,0.1-0.3,0.1-0.4
				L196,249.6L196,249.6z"/>
			<path class="st1" d="M204,252.8c-0.3,0.2-1,0.4-1.9,0.4c-2,0-3.4-1.4-3.4-3.4c0-2.1,1.4-3.6,3.6-3.6c0.7,0,1.4,0.2,1.7,0.3
				l-0.3,0.9c-0.3-0.2-0.8-0.3-1.4-0.3c-1.5,0-2.4,1.1-2.4,2.5c0,1.6,1,2.5,2.3,2.5c0.7,0,1.2-0.2,1.5-0.3L204,252.8z"/>
			<path class="st1" d="M206.8,244.4c0,0.4-0.3,0.8-0.8,0.8c-0.4,0-0.7-0.3-0.7-0.8c0-0.4,0.3-0.8,0.8-0.8
				C206.5,243.6,206.8,244,206.8,244.4z M205.4,253v-6.7h1.2v6.7H205.4z"/>
			<path class="st1" d="M214.8,249.6c0,2.5-1.7,3.6-3.4,3.6c-1.8,0-3.2-1.3-3.2-3.5c0-2.3,1.5-3.6,3.3-3.6
				C213.4,246.1,214.8,247.5,214.8,249.6z M209.4,249.7c0,1.5,0.9,2.6,2,2.6c1.2,0,2-1.1,2-2.6c0-1.1-0.6-2.6-2-2.6
				S209.4,248.4,209.4,249.7z M213.3,243.4l-1.7,2h-0.9l1.2-2H213.3z"/>
			<path class="st1" d="M216.3,248.1c0-0.7,0-1.3-0.1-1.8h1.1l0.1,1.1h0c0.3-0.6,1.1-1.3,2.2-1.3c0.9,0,2.4,0.6,2.4,2.9v4h-1.2v-3.9
				c0-1.1-0.4-2-1.6-2c-0.8,0-1.4,0.6-1.6,1.3c-0.1,0.2-0.1,0.4-0.1,0.6v4.1h-1.2L216.3,248.1L216.3,248.1z"/>
			<path class="st1" d="M150.5,259.3l1.5,4c0.2,0.4,0.3,1,0.4,1.4h0c0.1-0.4,0.3-0.9,0.4-1.4l1.3-4h1.3l-1.8,4.8
				c-0.9,2.3-1.5,3.5-2.3,4.2c-0.6,0.5-1.2,0.7-1.5,0.8l-0.3-1c0.3-0.1,0.7-0.3,1.1-0.6c0.3-0.3,0.8-0.7,1-1.4
				c0.1-0.1,0.1-0.2,0.1-0.3c0-0.1,0-0.2-0.1-0.3l-2.5-6.2L150.5,259.3L150.5,259.3z"/>
			<path class="st1" d="M159.6,256.6h5.1v1h-3.8v3.1h3.6v1h-3.6v4.2h-1.2V256.6z"/>
			<path class="st1" d="M167.4,257.4c0,0.4-0.3,0.8-0.8,0.8c-0.4,0-0.7-0.3-0.7-0.8c0-0.4,0.3-0.8,0.8-0.8
				C167.1,256.6,167.4,257,167.4,257.4z M166,266v-6.7h1.2v6.7H166z"/>
			<path class="st1" d="M169.3,261.1c0-0.7,0-1.3-0.1-1.8h1.1l0.1,1.1h0c0.3-0.6,1.1-1.3,2.2-1.3c0.9,0,2.4,0.6,2.4,2.9v4h-1.2v-3.9
				c0-1.1-0.4-2-1.6-2c-0.8,0-1.4,0.6-1.6,1.3c-0.1,0.2-0.1,0.4-0.1,0.6v4.1h-1.2L169.3,261.1L169.3,261.1z"/>
			<path class="st1" d="M180.8,266l-0.1-0.9h0c-0.4,0.5-1.1,1-2.1,1c-1.4,0-2.1-1-2.1-1.9c0-1.6,1.4-2.5,4.1-2.5v-0.1
				c0-0.6-0.2-1.6-1.5-1.6c-0.6,0-1.3,0.2-1.8,0.5l-0.3-0.8c0.6-0.4,1.4-0.6,2.2-0.6c2.1,0,2.6,1.4,2.6,2.8v2.5c0,0.6,0,1.2,0.1,1.6
				L180.8,266L180.8,266z M180.6,262.6c-1.3,0-2.9,0.2-2.9,1.5c0,0.8,0.5,1.2,1.2,1.2c0.9,0,1.4-0.6,1.6-1.1c0-0.1,0.1-0.3,0.1-0.4
				L180.6,262.6L180.6,262.6z"/>
			<path class="st1" d="M183.7,261.1c0-0.7,0-1.3-0.1-1.8h1.1l0.1,1.1h0c0.3-0.6,1.1-1.3,2.2-1.3c0.9,0,2.4,0.6,2.4,2.9v4h-1.2v-3.9
				c0-1.1-0.4-2-1.6-2c-0.8,0-1.4,0.6-1.6,1.3c-0.1,0.2-0.1,0.4-0.1,0.6v4.1h-1.2L183.7,261.1L183.7,261.1z"/>
			<path class="st1" d="M190.7,265.3l3.1-4c0.3-0.4,0.6-0.7,0.9-1v0H191v-1h5.1l0,0.8l-3,3.9c-0.3,0.4-0.6,0.7-0.9,1.1v0h3.9v1h-5.5
				L190.7,265.3L190.7,265.3z"/>
			<path class="st1" d="M201.2,266l-0.1-0.9h0c-0.4,0.5-1.1,1-2.1,1c-1.4,0-2.1-1-2.1-1.9c0-1.6,1.4-2.5,4.1-2.5v-0.1
				c0-0.6-0.2-1.6-1.5-1.6c-0.6,0-1.3,0.2-1.8,0.5l-0.3-0.8c0.6-0.4,1.4-0.6,2.2-0.6c2.1,0,2.6,1.4,2.6,2.8v2.5c0,0.6,0,1.2,0.1,1.6
				L201.2,266L201.2,266z M201,262.6c-1.3,0-2.9,0.2-2.9,1.5c0,0.8,0.5,1.2,1.2,1.2c0.9,0,1.4-0.6,1.6-1.1c0-0.1,0.1-0.3,0.1-0.4
				L201,262.6L201,262.6z"/>
			<path class="st1" d="M204,264.8c0.4,0.2,1,0.5,1.6,0.5c0.9,0,1.3-0.4,1.3-1c0-0.6-0.3-0.9-1.3-1.2c-1.2-0.4-1.8-1.1-1.8-1.9
				c0-1.1,0.9-2,2.3-2c0.7,0,1.3,0.2,1.7,0.4l-0.3,0.9c-0.3-0.2-0.8-0.4-1.4-0.4c-0.7,0-1.1,0.4-1.1,0.9c0,0.6,0.4,0.8,1.3,1.1
				c1.2,0.4,1.8,1,1.8,2c0,1.2-0.9,2-2.5,2c-0.7,0-1.4-0.2-1.9-0.5L204,264.8z"/>
		</g>
	</g>
	<g>
		<rect x="177.9" y="155" class="st1" width="1" height="72"/>
	</g>
</g>
<g>
	<rect x="276.7" y="155" class="st1" width="1" height="16"/>
</g>
<g>
	<rect x="474.4" y="155" class="st1" width="1" height="16"/>
</g>
<g>
	<rect x="672.1" y="155" class="st1" width="1" height="16"/>
</g>
<g>
	<g>
		<path class="st1" d="M633.3,274h-119v-38h119V274z M515.3,273h117v-36h-117V273z"/>
	</g>
	<text transform="matrix(1 0 0 1 544.4488 259.1355)" class="st1 st4 st5">Comercial</text>
</g>
<g>
	<rect x="573.3" y="155" class="st1" width="1" height="72"/>
</g>
<g>
	<g>
		<g>
			<path class="st1" d="M328.1,248.1c0,3.2-2,4.9-4.4,4.9c-2.5,0-4.2-1.9-4.2-4.8c0-3,1.9-4.9,4.4-4.9
				C326.5,243.4,328.1,245.3,328.1,248.1z M320.9,248.3c0,2,1.1,3.8,3,3.8c1.9,0,3-1.8,3-3.9c0-1.9-1-3.8-3-3.8
				C321.9,244.4,320.9,246.2,320.9,248.3z"/>
			<path class="st1" d="M329.7,248.4c0-0.9,0-1.6-0.1-2.2h1.1l0.1,1.2h0c0.5-0.8,1.3-1.3,2.4-1.3c1.6,0,2.9,1.4,2.9,3.4
				c0,2.4-1.5,3.6-3.1,3.6c-0.9,0-1.7-0.4-2.1-1.1h0v3.7h-1.2L329.7,248.4L329.7,248.4z M330.9,250.2c0,0.2,0,0.3,0.1,0.5
				c0.2,0.9,1,1.4,1.8,1.4c1.3,0,2-1.1,2-2.6c0-1.4-0.7-2.5-2-2.5c-0.8,0-1.6,0.6-1.9,1.5c0,0.2-0.1,0.3-0.1,0.5L330.9,250.2
				L330.9,250.2z"/>
			<path class="st1" d="M338.3,249.8c0,1.7,1.1,2.3,2.3,2.3c0.9,0,1.4-0.2,1.9-0.4l0.2,0.9c-0.4,0.2-1.2,0.4-2.2,0.4
				c-2.1,0-3.3-1.4-3.3-3.4c0-2,1.2-3.6,3.2-3.6c2.2,0,2.8,1.9,2.8,3.2c0,0.3,0,0.4,0,0.6H338.3z M341.9,248.9c0-0.8-0.3-2-1.7-2
				c-1.2,0-1.8,1.1-1.9,2H341.9z"/>
			<path class="st1" d="M344.6,248.3c0-0.8,0-1.5-0.1-2.1h1.1l0,1.3h0.1c0.3-0.9,1-1.5,1.9-1.5c0.1,0,0.2,0,0.3,0v1.2
				c-0.1,0-0.3,0-0.4,0c-0.9,0-1.5,0.7-1.6,1.6c0,0.2-0.1,0.4-0.1,0.6v3.6h-1.2L344.6,248.3L344.6,248.3z"/>
			<path class="st1" d="M352.8,252.9l-0.1-0.9h0c-0.4,0.5-1.1,1-2.1,1c-1.4,0-2.1-1-2.1-1.9c0-1.6,1.4-2.5,4.1-2.5v-0.1
				c0-0.6-0.2-1.6-1.5-1.6c-0.6,0-1.3,0.2-1.8,0.5l-0.3-0.8c0.6-0.4,1.4-0.6,2.2-0.6c2.1,0,2.6,1.4,2.6,2.8v2.5c0,0.6,0,1.2,0.1,1.6
				L352.8,252.9L352.8,252.9z M352.6,249.5c-1.3,0-2.9,0.2-2.9,1.5c0,0.8,0.5,1.2,1.2,1.2c0.9,0,1.4-0.6,1.6-1.1
				c0-0.1,0.1-0.3,0.1-0.4L352.6,249.5L352.6,249.5z"/>
			<path class="st1" d="M360.6,252.7c-0.3,0.2-1,0.4-1.9,0.4c-2,0-3.4-1.4-3.4-3.4c0-2.1,1.4-3.6,3.6-3.6c0.7,0,1.4,0.2,1.7,0.3
				l-0.3,0.9c-0.3-0.2-0.8-0.3-1.4-0.3c-1.5,0-2.4,1.1-2.4,2.5c0,1.6,1,2.5,2.3,2.5c0.7,0,1.2-0.2,1.5-0.3L360.6,252.7z"/>
			<path class="st1" d="M363.4,244.3c0,0.4-0.3,0.8-0.8,0.8c-0.4,0-0.7-0.3-0.7-0.8c0-0.4,0.3-0.8,0.8-0.8
				C363.1,243.5,363.4,243.8,363.4,244.3z M362,252.9v-6.7h1.2v6.7H362z"/>
			<path class="st1" d="M371.4,249.5c0,2.5-1.7,3.6-3.4,3.6c-1.8,0-3.2-1.3-3.2-3.5c0-2.3,1.5-3.6,3.3-3.6
				C370.1,246,371.4,247.4,371.4,249.5z M366.1,249.5c0,1.5,0.8,2.6,2,2.6c1.2,0,2-1.1,2-2.6c0-1.1-0.6-2.6-2-2.6
				S366.1,248.3,366.1,249.5z"/>
			<path class="st1" d="M373,248c0-0.7,0-1.3-0.1-1.8h1.1l0.1,1.1h0c0.3-0.6,1.1-1.3,2.2-1.3c0.9,0,2.4,0.6,2.4,2.9v4h-1.2V249
				c0-1.1-0.4-2-1.6-2c-0.8,0-1.4,0.6-1.6,1.3c-0.1,0.2-0.1,0.4-0.1,0.6v4.1h-1.2L373,248L373,248z"/>
			<path class="st1" d="M381.4,249.8c0,1.7,1.1,2.3,2.3,2.3c0.9,0,1.4-0.2,1.9-0.4l0.2,0.9c-0.4,0.2-1.2,0.4-2.2,0.4
				c-2.1,0-3.3-1.4-3.3-3.4c0-2,1.2-3.6,3.2-3.6c2.2,0,2.8,1.9,2.8,3.2c0,0.3,0,0.4,0,0.6H381.4z M385,248.9c0-0.8-0.3-2-1.7-2
				c-1.2,0-1.8,1.1-1.9,2H385z"/>
			<path class="st1" d="M387.5,251.6c0.4,0.2,1,0.5,1.6,0.5c0.9,0,1.3-0.4,1.3-1c0-0.6-0.3-0.9-1.3-1.2c-1.2-0.4-1.8-1.1-1.8-1.9
				c0-1.1,0.9-2,2.3-2c0.7,0,1.3,0.2,1.7,0.4l-0.3,0.9c-0.3-0.2-0.8-0.4-1.4-0.4c-0.7,0-1.1,0.4-1.1,0.9c0,0.6,0.4,0.8,1.3,1.1
				c1.2,0.4,1.8,1,1.8,2c0,1.2-0.9,2-2.5,2c-0.7,0-1.4-0.2-1.9-0.5L387.5,251.6z"/>
			<path class="st1" d="M396.2,243.6c0.6-0.1,1.4-0.2,2.3-0.2c1.2,0,2.1,0.3,2.6,0.8c0.5,0.4,0.8,1.1,0.8,2c0,0.9-0.3,1.5-0.7,2
				c-0.6,0.7-1.7,1-2.9,1c-0.4,0-0.7,0-1-0.1v3.8h-1.2L396.2,243.6L396.2,243.6z M397.4,248.2c0.3,0.1,0.6,0.1,1,0.1
				c1.5,0,2.4-0.7,2.4-2c0-1.2-0.9-1.8-2.2-1.8c-0.5,0-0.9,0-1.1,0.1L397.4,248.2L397.4,248.2z"/>
			<path class="st1" d="M403.5,243h1.2v9.9h-1.2V243z"/>
			<path class="st1" d="M410.5,252.9l-0.1-0.9h0c-0.4,0.5-1.1,1-2.1,1c-1.4,0-2.1-1-2.1-1.9c0-1.6,1.4-2.5,4.1-2.5v-0.1
				c0-0.6-0.2-1.6-1.5-1.6c-0.6,0-1.3,0.2-1.8,0.5l-0.3-0.8c0.6-0.4,1.4-0.6,2.2-0.6c2.1,0,2.6,1.4,2.6,2.8v2.5c0,0.6,0,1.2,0.1,1.6
				L410.5,252.9L410.5,252.9z M410.3,249.5c-1.3,0-2.9,0.2-2.9,1.5c0,0.8,0.5,1.2,1.2,1.2c0.9,0,1.4-0.6,1.6-1.1
				c0-0.1,0.1-0.3,0.1-0.4L410.3,249.5L410.3,249.5z"/>
			<path class="st1" d="M413.5,248c0-0.7,0-1.3-0.1-1.8h1.1l0.1,1.1h0c0.3-0.6,1.1-1.3,2.2-1.3c0.9,0,2.4,0.6,2.4,2.9v4H418V249
				c0-1.1-0.4-2-1.6-2c-0.8,0-1.4,0.6-1.6,1.3c-0.1,0.2-0.1,0.4-0.1,0.6v4.1h-1.2L413.5,248L413.5,248z"/>
			<path class="st1" d="M422.6,244.2v1.9h1.8v0.9h-1.8v3.6c0,0.8,0.2,1.3,0.9,1.3c0.3,0,0.6,0,0.7-0.1l0.1,0.9
				c-0.2,0.1-0.6,0.2-1.1,0.2c-0.6,0-1-0.2-1.3-0.5c-0.3-0.4-0.5-1-0.5-1.8v-3.7h-1v-0.9h1v-1.6L422.6,244.2z"/>
			<path class="st1" d="M429.5,252.9l-0.1-0.9h0c-0.4,0.5-1.1,1-2.1,1c-1.4,0-2.1-1-2.1-1.9c0-1.6,1.4-2.5,4.1-2.5v-0.1
				c0-0.6-0.2-1.6-1.5-1.6c-0.6,0-1.3,0.2-1.8,0.5l-0.3-0.8c0.6-0.4,1.4-0.6,2.2-0.6c2.1,0,2.6,1.4,2.6,2.8v2.5c0,0.6,0,1.2,0.1,1.6
				L429.5,252.9L429.5,252.9z M429.3,249.5c-1.3,0-2.9,0.2-2.9,1.5c0,0.8,0.5,1.2,1.2,1.2c0.9,0,1.4-0.6,1.6-1.1
				c0-0.1,0.1-0.3,0.1-0.4V249.5z"/>
			<path class="st1" d="M339.7,256.6c0.5-0.1,1.4-0.2,2.2-0.2c1.2,0,2,0.2,2.6,0.7c0.5,0.4,0.8,0.9,0.8,1.7c0,0.9-0.6,1.7-1.6,2.1v0
				c0.9,0.2,1.9,1,1.9,2.4c0,0.8-0.3,1.4-0.8,1.9c-0.7,0.6-1.7,0.9-3.2,0.9c-0.8,0-1.5-0.1-1.9-0.1L339.7,256.6L339.7,256.6z
				 M340.9,260.5h1.1c1.3,0,2-0.7,2-1.6c0-1.1-0.8-1.5-2.1-1.5c-0.6,0-0.9,0-1.1,0.1V260.5z M340.9,265c0.2,0,0.6,0.1,1,0.1
				c1.3,0,2.4-0.5,2.4-1.8c0-1.3-1.1-1.8-2.4-1.8h-1L340.9,265L340.9,265z"/>
			<path class="st1" d="M351,265.9l-0.1-0.9h0c-0.4,0.5-1.1,1-2.1,1c-1.4,0-2.1-1-2.1-1.9c0-1.6,1.4-2.5,4.1-2.5v-0.1
				c0-0.6-0.2-1.6-1.5-1.6c-0.6,0-1.3,0.2-1.8,0.5l-0.3-0.8c0.6-0.4,1.4-0.6,2.2-0.6c2.1,0,2.6,1.4,2.6,2.8v2.5c0,0.6,0,1.2,0.1,1.6
				L351,265.9L351,265.9z M350.8,262.5c-1.3,0-2.9,0.2-2.9,1.5c0,0.8,0.5,1.2,1.2,1.2c0.9,0,1.4-0.6,1.6-1.1c0-0.1,0.1-0.3,0.1-0.4
				V262.5z"/>
			<path class="st1" d="M354,256h1.2v4.2h0c0.2-0.3,0.5-0.7,0.9-0.9c0.4-0.2,0.8-0.3,1.3-0.3c0.9,0,2.4,0.6,2.4,2.9v4h-1.2V262
				c0-1.1-0.4-2-1.6-2c-0.8,0-1.4,0.6-1.6,1.2c-0.1,0.2-0.1,0.3-0.1,0.6v4.1H354L354,256L354,256z"/>
			<path class="st1" d="M364.2,256.2l-1.7,2h-0.9l1.2-2H364.2z M361.7,265.9v-6.7h1.2v6.7H361.7z"/>
			<path class="st1" d="M368.7,265.9l-0.1-0.9h0c-0.4,0.5-1.1,1-2.1,1c-1.4,0-2.1-1-2.1-1.9c0-1.6,1.4-2.5,4.1-2.5v-0.1
				c0-0.6-0.2-1.6-1.5-1.6c-0.6,0-1.3,0.2-1.8,0.5l-0.3-0.8c0.6-0.4,1.4-0.6,2.2-0.6c2.1,0,2.6,1.4,2.6,2.8v2.5c0,0.6,0,1.2,0.1,1.6
				L368.7,265.9L368.7,265.9z M368.5,262.5c-1.3,0-2.9,0.2-2.9,1.5c0,0.8,0.5,1.2,1.2,1.2c0.9,0,1.4-0.6,1.6-1.1
				c0-0.1,0.1-0.3,0.1-0.4V262.5z"/>
			<path class="st1" d="M374.7,256.6c0.5-0.1,1.4-0.2,2.2-0.2c1.2,0,2,0.2,2.6,0.7c0.5,0.4,0.8,0.9,0.8,1.7c0,0.9-0.6,1.7-1.6,2.1v0
				c0.9,0.2,1.9,1,1.9,2.4c0,0.8-0.3,1.4-0.8,1.9c-0.7,0.6-1.7,0.9-3.2,0.9c-0.8,0-1.5-0.1-1.9-0.1L374.7,256.6L374.7,256.6z
				 M375.9,260.5h1.1c1.3,0,2-0.7,2-1.6c0-1.1-0.8-1.5-2.1-1.5c-0.6,0-0.9,0-1.1,0.1L375.9,260.5L375.9,260.5z M375.9,265
				c0.2,0,0.6,0.1,1,0.1c1.3,0,2.4-0.5,2.4-1.8c0-1.3-1.1-1.8-2.4-1.8h-1L375.9,265L375.9,265z"/>
			<path class="st1" d="M382.2,256h1.2v9.9h-1.2V256z"/>
			<path class="st1" d="M389.2,265.9l-0.1-0.9h0c-0.4,0.5-1.1,1-2.1,1c-1.4,0-2.1-1-2.1-1.9c0-1.6,1.4-2.5,4.1-2.5v-0.1
				c0-0.6-0.2-1.6-1.5-1.6c-0.6,0-1.3,0.2-1.8,0.5l-0.3-0.8c0.6-0.4,1.4-0.6,2.2-0.6c2.1,0,2.6,1.4,2.6,2.8v2.5c0,0.6,0,1.2,0.1,1.6
				L389.2,265.9L389.2,265.9z M389,262.5c-1.3,0-2.9,0.2-2.9,1.5c0,0.8,0.5,1.2,1.2,1.2c0.9,0,1.4-0.6,1.6-1.1
				c0-0.1,0.1-0.3,0.1-0.4L389,262.5L389,262.5z"/>
			<path class="st1" d="M392.2,261c0-0.7,0-1.3-0.1-1.8h1.1l0.1,1.1h0c0.3-0.6,1.1-1.3,2.2-1.3c0.9,0,2.4,0.6,2.4,2.9v4h-1.2V262
				c0-1.1-0.4-2-1.6-2c-0.8,0-1.4,0.6-1.6,1.3c-0.1,0.2-0.1,0.4-0.1,0.6v4.1h-1.2L392.2,261L392.2,261z"/>
			<path class="st1" d="M404.7,265.7c-0.3,0.2-1,0.4-1.9,0.4c-2,0-3.4-1.4-3.4-3.4c0-2.1,1.4-3.6,3.6-3.6c0.7,0,1.4,0.2,1.7,0.3
				l-0.3,0.9c-0.3-0.2-0.8-0.3-1.4-0.3c-1.5,0-2.4,1.1-2.4,2.5c0,1.6,1,2.5,2.3,2.5c0.7,0,1.2-0.2,1.5-0.3L404.7,265.7z"/>
			<path class="st1" d="M409.9,265.9l-0.1-0.9h0c-0.4,0.5-1.1,1-2.1,1c-1.4,0-2.1-1-2.1-1.9c0-1.6,1.4-2.5,4.1-2.5v-0.1
				c0-0.6-0.2-1.6-1.5-1.6c-0.6,0-1.3,0.2-1.8,0.5l-0.3-0.8c0.6-0.4,1.4-0.6,2.2-0.6c2.1,0,2.6,1.4,2.6,2.8v2.5c0,0.6,0,1.2,0.1,1.6
				L409.9,265.9L409.9,265.9z M409.7,262.5c-1.3,0-2.9,0.2-2.9,1.5c0,0.8,0.5,1.2,1.2,1.2c0.9,0,1.4-0.6,1.6-1.1
				c0-0.1,0.1-0.3,0.1-0.4V262.5z"/>
		</g>
		<g>
			<path class="st1" d="M435.6,274h-119v-38h119V274z M317.6,273h117v-36h-117V273z"/>
		</g>
	</g>
	<g>
		<rect x="375.6" y="155" class="st1" width="1" height="72"/>
	</g>
</g>
<g>
	<g>
		<path class="st1" d="M839.5,274h-150v-38h150V274z M690.8,273h147.5v-36H690.8V273z"/>
	</g>
	<text transform="matrix(1.0714 0 0 1 705.4346 259.1355)" class="st1 st4 st5">Nuevos Negocios</text>
</g>
<g>
	<rect x="771" y="155" class="st1" width="1" height="72"/>
</g>
<g>
	<rect x="80" y="155" class="st1" width="692" height="1"/>
</g>
<g>
	<g>
		<path class="st1" d="M300.2,127H83.8V89h216.4V127z M84.9,126h214.2V90H84.9V126z"/>
	</g>
	<text transform="matrix(1 0 0 1 99.2245 114.677)" class="st1 st2 st3">GERENCIA COMERCIAL</text>
</g>
<g>
	<rect x="183.2" y="44.4" class="st1" width="1" height="45"/>
</g>
<g>
	<rect x="183.2" y="43.8" class="st1" width="145.8" height="1"/>
</g>
<g>
	<rect x="647.9" y="42.5" class="st1" width="1" height="41.6"/>
</g>
<g>
	<rect x="522" y="42.1" class="st1" width="126.9" height="1"/>
</g>
</svg>
